<?xml version="1.0" encoding="UTF-8" standalone="no"?>
<svg
   width="256"
   height="256"
   viewBox="0 0 100 100"
   version="1.1"
   id="svg1"
   sodipodi:docname="OWL.svg"
   inkscape:version="1.4.2 (ebf0e940d0, 2025-05-08)"
   xml:space="preserve"
   inkscape:export-filename="OWL.png"
   inkscape:export-xdpi="96"
   inkscape:export-ydpi="96"
   xmlns:inkscape="http://www.inkscape.org/namespaces/inkscape"
   xmlns:sodipodi="http://sodipodi.sourceforge.net/DTD/sodipodi-0.dtd"
   xmlns:xlink="http://www.w3.org/1999/xlink"
   xmlns="http://www.w3.org/2000/svg"
   xmlns:svg="http://www.w3.org/2000/svg"><sodipodi:namedview
     id="namedview1"
     pagecolor="#ffffff"
     bordercolor="#000000"
     borderopacity="0.25"
     inkscape:showpageshadow="2"
     inkscape:pageopacity="0.0"
     inkscape:pagecheckerboard="0"
     inkscape:deskcolor="#d1d1d1"
     inkscape:zoom="2.3312427"
     inkscape:cx="58.123506"
     inkscape:cy="98.874304"
     inkscape:window-width="2560"
     inkscape:window-height="1412"
     inkscape:window-x="1920"
     inkscape:window-y="0"
     inkscape:window-maximized="1"
     inkscape:current-layer="svg1" /><defs
     id="defs1"><pattern
       inkscape:collect="always"
       xlink:href="#pattern6-7"
       preserveAspectRatio="xMidYMid"
       id="pattern16"
       patternTransform="translate(190,350)" /><pattern
       patternUnits="userSpaceOnUse"
       width="29"
       height="20"
       patternTransform="translate(190,350)"
       preserveAspectRatio="xMidYMid"
       style="fill:#000000"
       id="pattern6-7"
       inkscape:label="pattern6-7"
       inkscape:collect="always"
       inkscape:isstock="true"><path
         style="fill:none;stroke:#000000;stroke-width:10;stroke-linecap:butt;stroke-dasharray:none;paint-order:stroke markers fill;stop-color:#000000"
         d="M 0,5 C 19,5 10,15 29,15"
         id="path4-2"
         sodipodi:nodetypes="cc" /></pattern><linearGradient
       id="swatch15"
       inkscape:swatch="solid"><stop
         style="stop-color:#1a1f71;stop-opacity:1;"
         offset="0"
         id="stop16" /></linearGradient><linearGradient
       id="swatch6"
       inkscape:swatch="solid"><stop
         style="stop-color:#1dcdfe;stop-opacity:1;"
         offset="0"
         id="stop7" /></linearGradient><style
       id="style1">
      .hex { fill:#1fa4ff; }
      .wave { fill:none; stroke:#02538f; stroke-width:4; stroke-linecap:round; }
      .node { fill:#31e0ff; }
    </style><filter
       y="-0.23646214"
       height="1.4729243"
       inkscape:menu-tooltip="Darkens the edge with an inner blur and adds a flexible glow"
       inkscape:menu="Shadows and Glows"
       inkscape:label="Dark and Glow"
       style="color-interpolation-filters:sRGB;"
       id="filter39"
       x="-0.25221741"
       width="1.5044348"><feGaussianBlur
         stdDeviation="5"
         result="result6"
         id="feGaussianBlur38" /><feComposite
         result="result8"
         in="SourceGraphic"
         operator="atop"
         in2="result6"
         id="feComposite38" /><feComposite
         result="result9"
         operator="over"
         in2="SourceAlpha"
         in="result8"
         id="feComposite39" /><feColorMatrix
         values="1 0 0 0 0 0 1 0 0 0 0 0 1 0 0 0 0 0 1 0 "
         result="result10"
         id="feColorMatrix39" /><feBlend
         in="result10"
         mode="normal"
         in2="result6"
         id="feBlend39" /></filter><filter
       style="color-interpolation-filters:sRGB;"
       inkscape:label="Drop Shadow"
       id="filter41"
       x="-0.15133045"
       y="-0.14187728"
       width="1.4287696"
       height="1.4019856"><feFlood
         result="flood"
         in="SourceGraphic"
         flood-opacity="0.498039"
         flood-color="rgb(0,0,0)"
         id="feFlood39" /><feGaussianBlur
         result="blur"
         in="SourceGraphic"
         stdDeviation="3.000000"
         id="feGaussianBlur39" /><feOffset
         result="offset"
         in="blur"
         dx="6.000000"
         dy="6.000000"
         id="feOffset39" /><feComposite
         result="comp1"
         operator="in"
         in="flood"
         in2="offset"
         id="feComposite40" /><feComposite
         result="comp2"
         operator="over"
         in="SourceGraphic"
         in2="comp1"
         id="feComposite41" /></filter><filter
       y="-0.047292428"
       height="1.0945849"
       inkscape:menu-tooltip="Darkens the edge with an inner blur and adds a flexible glow"
       inkscape:menu="Shadows and Glows"
       inkscape:label="Dark and Glow"
       style="color-interpolation-filters:sRGB;"
       id="filter71"
       x="-0.050443482"
       width="1.100887"><feGaussianBlur
         stdDeviation="1"
         result="result6"
         id="feGaussianBlur70" /><feComposite
         result="result8"
         in="SourceGraphic"
         operator="atop"
         in2="result6"
         id="feComposite70" /><feComposite
         result="result9"
         operator="over"
         in2="SourceAlpha"
         in="result8"
         id="feComposite71" /><feColorMatrix
         values="1 0 0 0 0 0 1 0 0 0 0 0 1 0 0 0 0 0 1 0 "
         result="result10"
         id="feColorMatrix71" /><feBlend
         in="result10"
         mode="normal"
         in2="result6"
         id="feBlend71" /></filter><filter
       inkscape:menu-tooltip="In and out glow with a possible offset and colorizable flood"
       inkscape:menu="Shadows and Glows"
       inkscape:label="Cutout Glow"
       style="color-interpolation-filters:sRGB;"
       id="filter72"
       x="-0.15133045"
       y="-0.14187728"
       width="1.3657152"
       height="1.3428701"><feOffset
         dy="3"
         dx="3"
         id="feOffset71" /><feGaussianBlur
         stdDeviation="3"
         result="blur"
         id="feGaussianBlur71" /><feFlood
         flood-color="rgb(0,0,0)"
         flood-opacity="1"
         result="flood"
         id="feFlood71" /><feComposite
         in="flood"
         in2="SourceGraphic"
         operator="in"
         result="composite"
         id="feComposite72" /><feBlend
         in="blur"
         in2="composite"
         mode="normal"
         id="feBlend72" /></filter><filter
       inkscape:menu="Shadows and Glows"
       inkscape:menu-tooltip="Cut out, add inner shadow and colorize some parts of an image"
       style="color-interpolation-filters:sRGB;"
       inkscape:label="Emergence"
       id="filter77"
       x="-0.15133045"
       y="-0.14187728"
       width="1.3657152"
       height="1.3428701"><feColorMatrix
         values="0 0 0 0 0 0 0 0 0 0 0 0 0 0 0 0.21 0.72 0.07 0 0 "
         result="result1"
         id="feColorMatrix72" /><feColorMatrix
         values="1 0 0 0 0 0 1 0 0 0 0 0 1 0 0 0 0 0 2 0 "
         result="result9"
         id="feColorMatrix73" /><feComposite
         in2="result9"
         in="SourceGraphic"
         operator="in"
         result="result4"
         id="feComposite73" /><feFlood
         result="result2"
         flood-color="rgb(0,0,0)"
         id="feFlood73" /><feComposite
         in2="result9"
         operator="in"
         result="result10"
         id="feComposite74" /><feComposite
         in2="result4"
         operator="atop"
         id="feComposite75" /><feGaussianBlur
         stdDeviation="3"
         result="result8"
         id="feGaussianBlur75" /><feOffset
         dx="3"
         dy="3"
         result="result3"
         in="result8"
         id="feOffset75" /><feFlood
         flood-opacity="1"
         flood-color="rgb(219,173,62)"
         result="result5"
         id="feFlood75" /><feMerge
         result="result6"
         id="feMerge77"><feMergeNode
           in="result5"
           id="feMergeNode75" /><feMergeNode
           in="result3"
           id="feMergeNode76" /><feMergeNode
           in="result4"
           id="feMergeNode77" /></feMerge><feComposite
         in2="SourceGraphic"
         operator="in"
         result="result7"
         id="feComposite77" /></filter><filter
       inkscape:label="In and Out"
       inkscape:menu="Shadows and Glows"
       inkscape:menu-tooltip="Inner colorized shadow, outer black shadow"
       style="color-interpolation-filters:sRGB;"
       id="filter78"
       x="-0.20177393"
       y="-0.18916971"
       width="1.5086384"
       height="1.4768653"><feGaussianBlur
         result="result0"
         in="SourceAlpha"
         stdDeviation="4"
         id="feGaussianBlur77" /><feOffset
         dx="5"
         dy="5"
         result="result4"
         id="feOffset77" /><feComposite
         in="SourceGraphic"
         in2="result4"
         operator="xor"
         result="result3"
         id="feComposite78" /></filter><filter
       inkscape:label="Inset"
       inkscape:menu="Shadows and Glows"
       inkscape:menu-tooltip="Shadowy outer bevel"
       style="color-interpolation-filters:sRGB;"
       id="filter80"
       x="-0.25726175"
       y="-0.24119138"
       width="1.5145235"
       height="1.4823828"><feMorphology
         result="result1"
         in="SourceAlpha"
         operator="dilate"
         radius="3.6"
         id="feMorphology78" /><feGaussianBlur
         stdDeviation="3.6"
         in="result1"
         result="result0"
         id="feGaussianBlur78" /><feDiffuseLighting
         surfaceScale="-5"
         id="feDiffuseLighting78"><feDistantLight
           elevation="45"
           azimuth="225"
           id="feDistantLight78" /></feDiffuseLighting><feComposite
         in2="result0"
         operator="in"
         result="result91"
         id="feComposite79" /><feComposite
         in="SourceGraphic"
         in2="result91"
         id="feComposite80" /></filter><filter
       style="color-interpolation-filters:sRGB;"
       inkscape:label="Drop Shadow"
       id="filter131"
       x="-0.15133045"
       y="-0.14187728"
       width="1.323679"
       height="1.3034597"><feFlood
         result="flood"
         in="SourceGraphic"
         flood-opacity="0.498039"
         flood-color="rgb(0,0,0)"
         id="feFlood130" /><feGaussianBlur
         result="blur"
         in="SourceGraphic"
         stdDeviation="3.000000"
         id="feGaussianBlur130" /><feOffset
         result="offset"
         in="blur"
         dx="1.000000"
         dy="1.000000"
         id="feOffset130" /><feComposite
         result="comp1"
         operator="out"
         in="flood"
         in2="offset"
         id="feComposite130" /><feComposite
         result="comp2"
         operator="atop"
         in="comp1"
         in2="SourceGraphic"
         id="feComposite131" /></filter><filter
       style="color-interpolation-filters:sRGB;"
       inkscape:label="Drop Shadow"
       id="filter177"
       x="-0.15133045"
       y="-0.14187728"
       width="1.323679"
       height="1.3034597"><feFlood
         result="flood"
         in="SourceGraphic"
         flood-opacity="0.501961"
         flood-color="rgb(24,36,113)"
         id="feFlood176" /><feGaussianBlur
         result="blur"
         in="SourceGraphic"
         stdDeviation="3.000000"
         id="feGaussianBlur176" /><feOffset
         result="offset"
         in="blur"
         dx="1.000000"
         dy="1.000000"
         id="feOffset176" /><feComposite
         result="comp1"
         operator="out"
         in="flood"
         in2="offset"
         id="feComposite176" /><feComposite
         result="comp2"
         operator="atop"
         in="comp1"
         in2="SourceGraphic"
         id="feComposite177" /></filter></defs><g
     inkscape:groupmode="layer"
     id="layer1"
     inkscape:label="Layer 1"><g
       style="fill:#1e64c8;fill-opacity:1;stroke-width:1.00002;stroke-dasharray:none;stroke:none;filter:url(#filter177)"
       id="g1"
       transform="matrix(1.7294202,0,0,1.7294202,1.7701049,2.7260417)"
       inkscape:export-filename="OWL.png"
       inkscape:export-xdpi="96"
       inkscape:export-ydpi="96"><path
         d="m 7.586,42.9414 16.2656,9.2344 c 2.7891,1.5937 5.461,1.6172 8.2969,0 l 16.2656,-9.2344 c 2.1797,-1.2422 3.3749,-2.5078 3.3749,-5.9062 V 18.8008 c 0,-3.3047 -1.2187,-4.5 -3.2107,-5.6485 L 32.2657,3.8711 c -2.9062,-1.6641 -5.6953,-1.6406 -8.5313,0 L 7.4219,13.1523 C 5.4297,14.3008 4.211,15.4961 4.211,18.8008 v 18.2344 c 0,3.3984 1.1953,4.664 3.375,5.9062 z"
         id="path1-5"
         style="fill:#1e64c8;fill-opacity:1;stroke-width:1.00002;stroke-dasharray:none;stroke:none" /></g></g><!-- hexagon --><!-- wave --><!-- node --><path
     class="wave"
     d="M 19.733942,62.738475 Q 30.58807,53.67272 40.100918,59.546877 49.613766,65.421034 60.0208,61.335249 70.427835,57.249465 80.387776,58.143651"
     id="path2"
     style="stroke:#ffffff;stroke-opacity:1"
     inkscape:export-filename="owl.png"
     inkscape:export-xdpi="96"
     inkscape:export-ydpi="96" /><path
     class="wave"
     d="m 19.045291,70.409046 q 10.854128,-9.065755 20.366976,-3.191598 9.512848,5.874157 19.919883,1.788373 10.407034,-4.085786 20.366975,-3.191599"
     id="path3"
     style="stroke:#ffffff;stroke-opacity:1" /><text
     xml:space="preserve"
     style="font-weight:bold;font-size:20.8333px;font-family:sans-serif;-inkscape-font-specification:'sans-serif Bold';text-align:center;writing-mode:lr-tb;direction:ltr;text-anchor:middle;fill:#ffffff;fill-opacity:1;stroke:none;stroke-width:0.798828;stroke-linecap:round;stroke-linejoin:round;stroke-dasharray:none;stroke-opacity:1;paint-order:markers stroke fill"
     x="50.603378"
     y="50.423203"
     id="text1"><tspan
       sodipodi:role="line"
       id="tspan1"
       style="font-style:normal;font-variant:normal;font-weight:bold;font-stretch:normal;font-size:20.8333px;font-family:'Open Sans';-inkscape-font-specification:'Open Sans Bold';fill:#ffffff;fill-opacity:1;stroke:none;stroke-width:0.798828;stroke-dasharray:none;stroke-opacity:1"
       x="50.603378"
       y="50.423203">OWL</tspan></text><style
     type="text/css"
     id="style1-2">
	.st0{fill:#000000;}
</style><g
     style="fill:#1e64c8;fill-opacity:1"
     id="g7"
     transform="matrix(0.83772907,0,0,0.83772907,98.53293,114.03991)"><path
       d="m -58.799805,-28.248051 c -3.68,0 -6.68,-3 -6.68,-6.68 0,-3.44 5.4,-9.68 6.04,-10.4 0.32,-0.36 0.96,-0.36 1.28,0 0.6,0.72 6.04,6.96 6.04,10.4 -0.04,3.68 -3.04,6.68 -6.68,6.68 z m 0,-15.24 c -1.84,2.2 -5.04,6.48 -5.04,8.56 0,2.76 2.24,5 5,5 2.76,0 5,-2.24 5,-5 0,-2.08 -3.16,-6.36 -4.96,-8.56 z m -1.24,11.72 c -0.12,0 -0.28,-0.04 -0.4,-0.12 -0.84,-0.48 -1.52,-1.24 -1.84,-2.16 -0.16,-0.44 0.08,-0.92 0.52,-1.08 0.44,-0.16 0.92,0.08 1.08,0.52 0.2,0.52 0.56,1 1.08,1.28 0.4,0.24 0.56,0.72 0.32,1.16 -0.16,0.24 -0.44,0.4 -0.76,0.4 z"
       id="path7"
       style="fill:#ffffff;fill-opacity:1" /></g><style
     type="text/css"
     id="style1-5">
	.st0{fill:#000000;}
</style><g
     id="g3"
     transform="matrix(0.03430152,0,0,0.03430152,40.936236,11.247638)"
     style="fill:#ffffff">
	<path
   class="st0"
   d="m 203.882,152.104 c 5.826,0 10.553,-4.726 10.553,-10.553 0,-5.834 -4.726,-10.56 -10.553,-10.56 -5.827,0 -10.553,4.726 -10.553,10.56 0,5.827 4.726,10.553 10.553,10.553 z"
   id="path1"
   style="fill:#ffffff" />
	<path
   class="st0"
   d="m 308.125,152.104 c 5.826,0 10.545,-4.726 10.545,-10.553 0,-5.834 -4.719,-10.56 -10.545,-10.56 -5.834,0 -10.56,4.726 -10.56,10.56 -10e-4,5.827 4.726,10.553 10.56,10.553 z"
   id="path2-9"
   style="fill:#ffffff" />
	<path
   class="st0"
   d="M 381.027,208.774 C 410.278,145.893 391.801,98.084 363.585,59.632 374.041,45.564 366.833,0 366.833,0 c 0,0 -80.442,49.441 -112.004,49.582 C 223.274,49.715 142.404,0.976 142.404,0.976 c 0,0 -6.816,45.623 3.766,59.594 -27.885,38.704 -45.948,86.674 -16.143,149.297 -42.809,59.247 -68.22,159.015 34.31,250.852 9.275,11.04 22.184,9.135 25.825,-3.795 0,0 0.236,55.363 66.676,55.075 66.441,-0.296 66.204,-55.652 66.204,-55.652 3.744,12.894 16.675,14.688 25.854,3.575 101.717,-92.724 75.449,-192.277 32.131,-251.148 z M 308.125,100.027 c 22.929,0 41.524,18.587 41.524,41.524 0,22.937 -18.595,41.524 -41.524,41.524 -22.937,0 -41.532,-18.587 -41.532,-41.524 0,-22.937 18.595,-41.524 41.532,-41.524 z m -104.243,0 c 22.937,0 41.524,18.587 41.524,41.524 0,22.937 -18.588,41.524 -41.524,41.524 -22.936,0 -41.524,-18.587 -41.524,-41.524 -0.001,-22.937 18.587,-41.524 41.524,-41.524 z m -44.648,285.294 c 12.074,-21.394 18.395,-51.228 18.366,-80.021 0.015,-22.405 -3.788,-44.19 -11.077,-60.791 h 0.008 l 11.077,-4.844 c 8.168,18.698 12.082,41.879 12.088,65.636 -0.022,30.528 -6.476,61.988 -19.917,85.958 z m 84.82,51.73 c -4.076,0 -7.385,-3.308 -7.385,-7.384 -0.036,-3.02 -0.819,-4.785 -2.082,-6.469 -1.27,-1.647 -3.249,-3.116 -5.539,-4.246 -3.301,-1.662 -7.066,-2.459 -8.986,-2.777 v 21.135 c 0,4.077 -3.302,7.378 -7.385,7.378 -4.076,0 -7.377,-3.301 -7.377,-7.378 v -21.127 c -0.642,0.096 -1.455,0.244 -2.438,0.472 -2.326,0.539 -5.346,1.528 -7.842,2.991 -1.683,0.975 -3.109,2.126 -4.128,3.397 -1.336,1.728 -2.164,3.508 -2.208,6.624 0,4.076 -3.301,7.384 -7.377,7.384 -4.077,0 -7.385,-3.308 -7.385,-7.384 -0.037,-6.344 2.208,-11.912 5.48,-15.9 3.264,-4.025 7.303,-6.609 11.07,-8.389 7.539,-3.5 14.326,-4.018 14.806,-4.091 l 0.318,-0.023 h 14.178 l 0.303,0.023 c 0.266,0.03 2.541,0.228 5.804,1.004 3.279,0.775 7.554,2.097 11.867,4.586 2.858,1.662 5.76,3.87 8.204,6.89 3.272,3.988 5.524,9.556 5.48,15.9 0,4.075 -3.301,7.384 -7.378,7.384 z m 11.949,-236.747 -21.142,-12.923 c 0,0 8.219,-11.742 21.142,-12.916 12.916,1.174 21.142,12.916 21.142,12.916 z m 78.175,236.747 c -4.077,0 -7.378,-3.308 -7.378,-7.384 -0.037,-3.02 -0.827,-4.785 -2.082,-6.469 -1.27,-1.647 -3.249,-3.116 -5.538,-4.246 -3.301,-1.662 -7.075,-2.459 -8.987,-2.777 v 21.135 c 0,4.077 -3.308,7.378 -7.385,7.378 -4.076,0 -7.384,-3.301 -7.384,-7.378 v -21.127 c -0.635,0.096 -1.447,0.244 -2.437,0.472 -2.318,0.539 -5.339,1.528 -7.842,2.991 -1.676,0.975 -3.102,2.126 -4.12,3.397 -1.345,1.728 -2.164,3.508 -2.208,6.624 0,4.076 -3.301,7.384 -7.385,7.384 -4.076,0 -7.378,-3.308 -7.378,-7.384 -0.044,-6.344 2.208,-11.912 5.48,-15.9 3.264,-4.025 7.303,-6.609 11.062,-8.389 7.548,-3.5 14.334,-4.018 14.814,-4.091 l 0.303,-0.023 h 14.185 l 0.303,0.023 c 0.266,0.03 2.54,0.228 5.812,1.004 3.272,0.775 7.555,2.097 11.868,4.586 2.865,1.662 5.76,3.87 8.204,6.89 3.272,3.988 5.516,9.556 5.48,15.9 -0.003,4.075 -3.311,7.384 -7.387,7.384 z m 8.034,-45.793 c -13.44,-23.971 -19.894,-55.43 -19.924,-85.958 0.015,-23.757 3.928,-46.937 12.088,-65.636 h 0.008 l 11.078,4.844 c -7.281,16.601 -11.085,38.386 -11.07,60.791 -0.03,28.793 6.292,58.627 18.366,80.021 z"
   id="path3-2"
   style="fill:#ffffff" />
</g></svg>
